<svg width="58" height="36" viewBox="0 0 58 36" fill="none" xmlns="http://www.w3.org/2000/svg">
<path d="M17.6028 23.5293C16.9844 23.5293 16.3661 22.911 16.3661 22.2923C16.3661 21.674 16.9844 21.0556 17.6028 21.0556C18.2215 21.0556 18.8398 21.674 18.8398 22.2923C18.8398 22.911 18.2215 23.5293 17.6028 23.5293Z" fill="white"/>
<path d="M2.64303 35.7538L0.0831524 35.761L0 6.9697L2.56063 6.96214L2.61166 24.755L5.49166 24.7463C5.79931 24.1314 6.3874 23.5516 6.73852 23.199L13.8232 15.5961L17.0139 15.6139L8.34444 24.2886C7.95099 24.7951 7.41354 25.3877 7.4143 25.7112C7.41506 26.0348 7.73707 26.6811 8.05796 27.0031L16.9429 35.7482L13.7261 35.7266L6.46262 28.6256C5.82085 27.9805 5.49884 27.3342 5.17682 26.6883L2.61695 26.6958L2.64303 35.7538Z" fill="white"/>
<path d="M41.9002 35.7281C41.2603 35.7281 41.2603 35.7281 31.9805 35.7281C31.9805 35.7281 31.9805 35.7281 31.6603 35.7281C31.6603 35.7281 31.6603 35.7281 31.6603 35.0883C31.6603 34.7681 31.6603 33.8081 31.6603 33.1683C31.6603 32.2083 31.6603 31.8881 31.6603 30.608V6.92813H34.2202V19.7283C35.8205 17.168 38.7005 15.5681 41.9002 15.5681C47.6602 15.5681 52.1405 19.7283 52.1405 25.4883C52.1405 31.2483 47.6602 35.7281 41.9002 35.7281ZM42.1187 33.4691C46.2788 33.4691 49.7987 29.9492 49.7987 25.4694C49.7987 21.3092 46.2788 17.7894 42.1187 17.7894C37.6388 17.7894 34.4387 21.3092 34.4387 25.4694C34.4387 29.9492 37.6388 33.4691 42.1187 33.4691Z" fill="white"/>
<path d="M21.0777 35.7123C15.6552 35.7493 11.1598 31.3152 11.1194 25.5744C11.082 20.1523 15.5161 15.6566 21.2568 15.6169C26.9979 15.5764 31.4918 19.6924 31.5311 25.4331L31.6018 35.7274L29.3711 35.7349L29.3359 30.8699C27.7618 33.7518 24.9048 35.6854 21.0777 35.7123ZM21.3604 33.5156C25.8406 33.5156 29.0404 29.9957 29.0404 25.5158C29.0404 21.3557 25.8406 17.8358 21.3604 17.8358C17.2006 17.8358 13.6804 21.3557 13.6804 25.5158C13.6804 29.9957 17.2006 33.5156 21.3604 33.5156Z" fill="#E31E24"/>
<path d="M41.5974 14.5085H40.8999V9.25524C40.8999 7.65788 42.1598 6.42049 43.7684 6.42049C45.3995 6.42049 46.6257 7.70288 46.6257 9.25524C46.6257 10.8639 45.4108 12.1237 43.7909 12.1237C42.8685 12.1237 42.0586 11.6513 41.5974 10.9426V14.5085ZM43.7684 11.46C44.9721 11.46 45.9282 10.4589 45.9282 9.26649C45.9282 8.0741 44.9721 7.08418 43.7684 7.08418C42.5535 7.08418 41.5974 8.0741 41.5974 9.26649C41.5974 10.4589 42.5535 11.46 43.7684 11.46ZM48.7269 12H48.0294V8.63655C48.0294 7.36541 48.7606 6.46549 50.0205 6.46549C50.358 6.46549 50.6842 6.53298 50.9654 6.66797V7.37666C50.6954 7.21917 50.3917 7.14043 50.0767 7.14043C49.2443 7.14043 48.7269 7.73663 48.7269 8.67029V12ZM54.2941 12.1125C52.6743 12.1125 51.4257 10.8301 51.4257 9.25524C51.4257 7.69163 52.6968 6.42049 54.2941 6.42049C55.9253 6.42049 57.1514 7.70288 57.1514 9.25524C57.1514 10.8301 55.9028 12.1125 54.2941 12.1125ZM54.2941 11.4488C55.4978 11.4488 56.454 10.4589 56.454 9.26649C56.454 8.0741 55.4978 7.08418 54.2941 7.08418C53.0793 7.08418 52.1231 8.0741 52.1231 9.26649C52.1231 10.4589 53.0793 11.4488 54.2941 11.4488Z" fill="white"/>
<path d="M24.9411 22.1763H22.9867V22.4461H24.9411V22.1763Z" fill="black" stroke="white" stroke-width="0.755906" stroke-miterlimit="22.9256"/>
<path d="M25.4944 26.6898C25.4812 29.1109 23.5155 31.0687 21.0913 31.0687C18.6591 31.0687 16.6881 29.0977 16.6881 26.6656C16.6881 26.6595 16.6881 26.6531 16.6881 26.6471" stroke="white" stroke-width="0.377953" stroke-miterlimit="22.9256"/>
</svg>
