<svg width="67" height="35" viewBox="0 0 67 35" fill="none" xmlns="http://www.w3.org/2000/svg">
<path d="M17.8385 17.5293C17.2202 17.5293 16.6018 16.911 16.6018 16.2923C16.6018 15.674 17.2202 15.0556 17.8385 15.0556C18.4572 15.0556 19.0755 15.674 19.0755 16.2923C19.0755 16.911 18.4572 17.5293 17.8385 17.5293Z" fill="white"/>
<path d="M2.87874 29.7538L0.31887 29.761L0.235718 0.969702L2.79635 0.962143L2.84737 18.755L5.72737 18.7463C6.03503 18.1314 6.62312 17.5516 6.97424 17.199L14.059 9.5961L17.2496 9.61386L8.58016 18.2886C8.18671 18.7951 7.64926 19.3877 7.65002 19.7112C7.65077 20.0348 7.97279 20.6811 8.29367 21.0031L17.1786 29.7482L13.9618 29.7266L6.69834 22.6256C6.05657 21.9805 5.73456 21.3342 5.41254 20.6883L2.85267 20.6958L2.87874 29.7538Z" fill="white"/>
<path d="M42.1359 29.7281C41.4961 29.7281 41.4961 29.7281 32.2162 29.7281C32.2162 29.7281 32.2162 29.7281 31.8961 29.7281C31.8961 29.7281 31.8961 29.7281 31.8961 29.0883C31.8961 28.7681 31.8961 27.8081 31.8961 27.1683C31.8961 26.2083 31.8961 25.8881 31.8961 24.608V0.928131H34.4559V13.7283C36.0562 11.168 38.9362 9.56813 42.1359 9.56813C47.8959 9.56813 52.3762 13.7283 52.3762 19.4883C52.3762 25.2483 47.8959 29.7281 42.1359 29.7281ZM42.3544 27.4691C46.5145 27.4691 50.0344 23.9492 50.0344 19.4694C50.0344 15.3092 46.5145 11.7894 42.3544 11.7894C37.8745 11.7894 34.6744 15.3092 34.6744 19.4694C34.6744 23.9492 37.8745 27.4691 42.3544 27.4691Z" fill="white"/>
<path d="M21.3134 29.7123C15.8909 29.7493 11.3955 25.3152 11.3551 19.5744C11.3177 14.1523 15.7518 9.65657 21.4925 9.61689C27.2336 9.57645 31.7275 13.6924 31.7668 19.4331L31.8375 29.7274L29.6068 29.7349L29.5717 24.8699C27.9975 27.7518 25.1405 29.6854 21.3134 29.7123ZM21.5961 27.5156C26.0764 27.5156 29.2761 23.9957 29.2761 19.5158C29.2761 15.3557 26.0764 11.8358 21.5961 11.8358C17.4364 11.8358 13.9161 15.3557 13.9161 19.5158C13.9161 23.9957 17.4364 27.5156 21.5961 27.5156Z" fill="#E31E24"/>
<path d="M50.3282 32.8297H49.6308V27.5764C49.6308 25.979 50.8906 24.7416 52.4993 24.7416C54.1304 24.7416 55.3565 26.024 55.3565 27.5764C55.3565 29.185 54.1416 30.4449 52.5218 30.4449C51.5993 30.4449 50.7894 29.9724 50.3282 29.2637V32.8297ZM52.4993 29.7812C53.7029 29.7812 54.6591 28.78 54.6591 27.5876C54.6591 26.3952 53.7029 25.4053 52.4993 25.4053C51.2844 25.4053 50.3282 26.3952 50.3282 27.5876C50.3282 28.78 51.2844 29.7812 52.4993 29.7812ZM57.4577 30.3211H56.7603V26.9577C56.7603 25.6865 57.4914 24.7866 58.7513 24.7866C59.0888 24.7866 59.415 24.8541 59.6962 24.9891V25.6978C59.4263 25.5403 59.1225 25.4616 58.8076 25.4616C57.9751 25.4616 57.4577 26.0578 57.4577 26.9914V30.3211ZM63.025 30.4336C61.4051 30.4336 60.1565 29.1512 60.1565 27.5764C60.1565 26.0128 61.4276 24.7416 63.025 24.7416C64.6561 24.7416 65.8822 26.024 65.8822 27.5764C65.8822 29.1512 64.6336 30.4336 63.025 30.4336ZM63.025 29.7699C64.2286 29.7699 65.1848 28.78 65.1848 27.5876C65.1848 26.3952 64.2286 25.4053 63.025 25.4053C61.8101 25.4053 60.8539 26.3952 60.8539 27.5876C60.8539 28.78 61.8101 29.7699 63.025 29.7699Z" fill="white"/>
<path d="M25.1768 16.1763H23.2224V16.4461H25.1768V16.1763Z" fill="black" stroke="white" stroke-width="0.755906" stroke-miterlimit="22.9256"/>
<path d="M25.7301 20.6898C25.7169 23.1109 23.7512 25.0687 21.327 25.0687C18.8949 25.0687 16.9238 23.0977 16.9238 20.6656C16.9238 20.6595 16.9238 20.6531 16.9238 20.6471" stroke="white" stroke-width="0.377953" stroke-miterlimit="22.9256"/>
</svg>
